<!--svg xmlns="http://www.w3.org/2000/svg" viewBox="0 0 6 6" width="300" height="300">
	<g strocke-width="2" stroke="none" fill="#000" transform="translate(2.5,2.5)">
		<path d="M-3,-3h7v7h-7Z" stroke="#fff" fill="#fff"/>
		<path d="M-2,-3h1v1h-1Z M0,-3h1v1h-1Z M2,-3h1v1h-1Z" fill="#BFBFBF"/>
		<path d="M-3,-2h1v1h-1Z M-3,0h1v1h-1Z M-3,2h1v1h-1Z" fill="#BFBFBF"/>
		<path d="M-1,-1h1v1h-1Z" fill="#0073EF"/>
		<path d="M1,-1h1v1h-1Z" fill="#E7005B"/>
		<path d="M-1,1h1v1h-1Z M0,1h1v1h-1Z M1,1h1v1h-1Z" fill="#003F17"/>
		<path d="M3,-2h1v1h-1Z M3,0h1v1h-1Z M3,2h1v1h-1Z" fill="#BFBFBF"/>
		<path d="M-2,3h1v1h-1Z M0,3h1v1h-1Z M2,3h1v1h-1Z M4,3h1v1h-1Z" fill="#BFBFBF"/>
	</g>
</svg!-->
<!-- qlmanage -t -s 192 -o ./ icon.svg -or- inkscape -z -o icon.png -w 192 -h 192 icon.svg -->
<svg xmlns="http://www.w3.org/2000/svg" viewBox="0 0 8 8" width="384" height="384">
	<g strocke-width="2" stroke="none" fill="#000" transform="translate(3.5,3.5)">
		<path d="M-3,-3h7v7h-7Z" stroke="#fff" fill="#fff"/>
		<path d="M-4,-3h1v1h-1Z M-4,-1h1v1h-1Z M-4,1h1v1h-1Z M-4,3h1v1h-1Z" fill="#BFBFBF"/>
		<path d="M-3,-4h1v1h-1Z M-1,-4h1v1h-1Z M1,-4h1v1h-1Z M3,-4h1v1h-1Z" fill="#BFBFBF"/>
		<path d="M-2,-3h1v1h-1Z M0,-3h1v1h-1Z M2,-3h1v1h-1Z" fill="#BFBFBF"/>
		<path d="M-3,-2h1v1h-1Z M-3,0h1v1h-1Z M-3,2h1v1h-1Z" fill="#BFBFBF"/>
		<path d="M-1,-1h1v1h-1Z" fill="#0073EF"/>
		<path d="M1,-1h1v1h-1Z" fill="#E7005B"/>
		<path d="M-1,1h1v1h-1Z M0,1h1v1h-1Z M1,1h1v1h-1Z" fill="#003F17"/>
		<path d="M3,-2h1v1h-1Z M3,0h1v1h-1Z M3,2h1v1h-1Z" fill="#BFBFBF"/>
		<path d="M-2,3h1v1h-1Z M0,3h1v1h-1Z M2,3h1v1h-1Z M4,3h1v1h-1Z" fill="#BFBFBF"/>
		<path d="M-3,4h1v1h-1Z M-1,4h1v1h-1Z M1,4h1v1h-1Z M3,4h1v1h-1Z" fill="#BFBFBF"/>
		<path d="M4,-3h1v1h-1Z M4,-1h1v1h-1Z M4,1h1v1h-1Z" fill="#BFBFBF"/>
	</g>
</svg>
